<?xml version="1.0" encoding="utf-8"?>
<!-- Generator: Adobe Illustrator 19.2.1, SVG Export Plug-In . SVG Version: 6.00 Build 0)  -->
<svg version="1.1" id="layer" xmlns="http://www.w3.org/2000/svg" xmlns:xlink="http://www.w3.org/1999/xlink" x="0px" y="0px"
	 viewBox="0 0 652 652" style="enable-background:new 0 0 652 652;" xml:space="preserve">
<style type="text/css">
	.st0{fill:#41007F;}
	.st1{fill:#00A7E1;}
	.st2{fill:#FFFFFF;}
</style>
<path class="st0" d="M208.1,412.4h-4.3l-11.4-15.2l-3.3,2.9v12.2h-3.6v-31.2h3.6v15.5l14.2-15.5h4.3L195,394.5L208.1,412.4z
	 M221.8,412.9c-2.8,0-5.5-1.1-7.6-3.1c-2.1-2.4-3.2-5.6-3-8.8c-0.2-3.2,0.8-6.4,2.8-9c1.7-2.1,4.3-3.3,7-3.3h0.9
	c2.5,0,4.9,1,6.6,2.9c1.8,2.1,2.7,4.9,2.6,7.6v2.3h-16.3c-0.1,2.3,0.7,4.5,2.1,6.2c1.4,1.4,3.3,2.2,5.2,2.2h0.4
	c2.6,0,5.1-0.6,7.5-1.6v3.2c-1.1,0.5-2.3,0.9-3.5,1.1c-1.2,0.2-2.3,0.3-3.5,0.3h-0.4C222.2,412.9,222,412.9,221.8,412.9z
	 M221.1,391.6c-1.6,0-3.1,0.7-4.2,1.9c-1.2,1.4-1.9,3.2-2,5h12.3c0.1-1.8-0.4-3.6-1.5-5.1c-1-1.1-2.4-1.8-4-1.8h-0.3L221.1,391.6z
	 M248.1,412.9c-2.8,0-5.5-1.1-7.6-3.1c-2.1-2.4-3.2-5.6-3-8.8c-0.2-3.2,0.8-6.4,2.8-9c1.7-2.1,4.3-3.3,7-3.3h0.5
	c2.5,0,4.9,1,6.6,2.9c1.9,2.1,3,4.8,2.9,7.6v2.3h-15.9c-0.1,2.3,0.7,4.5,2.1,6.3c1.4,1.4,3.3,2.2,5.2,2.2h0.4c2.6,0,5.1-0.6,7.5-1.6
	v3.2c-1.1,0.5-2.3,0.9-3.5,1.1c-1.2,0.2-2.4,0.4-3.6,0.4h-0.8C248.7,412.9,248.1,412.9,248.1,412.9z M247.8,391.6
	c-1.6,0-3.1,0.7-4.2,1.9c-1.2,1.4-1.9,3.2-2,5h12.3c0.1-1.8-0.4-3.6-1.5-5.1c-1-1.1-2.4-1.8-4-1.8h-0.3L247.8,391.6z M268.4,423
	h-3.6V389h3.3v3.5c0.8-1.2,1.9-2.1,3.1-2.8c1.3-0.5,2.6-0.8,4-0.8h0.7c2.6,0,5,1.2,6.7,3.1c1.8,2.6,2.7,5.8,2.5,9
	c0.2,3.2-0.7,6.3-2.6,8.9c-1.6,1.9-4,2.9-6.4,2.9h-0.5c-1.4,0-2.8-0.3-4.1-0.8c-1.3-0.6-2.3-1.5-3.1-2.6L268.4,423L268.4,423z
	 M274.6,391.6c-1.8,0-3.4,0.7-4.6,2c-1.2,1.9-1.8,4.1-1.6,6.3v0.8c-0.2,2.5,0.3,4.9,1.6,7c1.3,1.4,3,2.2,4.9,2.2h0.6
	c1.8,0,3.6-0.9,4.6-2.5c1.2-2,1.8-4.3,1.7-6.7c0.1-2.3-0.5-4.7-1.7-6.6c-1.1-1.6-2.8-2.5-4.7-2.5h-0.1
	C275,391.6,274.8,391.6,274.6,391.6z M307.4,412.4v-31.3h3.6v28h13.9v3.3L307.4,412.4z M340.7,412.9h-0.9c-1.9,0-3.7-0.5-5.3-1.5
	c-1.6-1-3-2.5-3.8-4.2c-0.9-2.1-1.4-4.4-1.3-6.6c-0.2-3.2,0.9-6.4,2.9-8.9c1.9-2,4.6-3.2,7.5-3.2h1c2.8,0,5.5,1.2,7.4,3.3
	c2,2.6,2.9,5.8,2.6,9c0.3,3.2-0.7,6.4-2.6,8.9C346.2,411.7,343.5,412.9,340.7,412.9z M339.4,391.8c-1.9,0-3.6,0.8-4.8,2.3
	c-1.2,2-1.9,4.3-1.7,6.6c-0.1,2.4,0.5,4.7,1.8,6.6c1.2,1.5,3,2.4,4.9,2.4h0.8c1.9,0,3.7-0.9,4.9-2.3c1.3-2,2-4.3,1.9-6.7
	c0.2-2.4-0.5-4.7-1.9-6.6c-1.2-1.5-2.9-2.4-4.8-2.3c-0.2,0-0.3,0-0.5,0S339.5,391.8,339.4,391.8z M367.8,412.9h-0.8
	c-1.9,0-3.8-0.5-5.4-1.5c-1.6-1-2.9-2.5-3.7-4.2c-1-2.1-1.4-4.4-1.3-6.6c-0.2-3.2,0.8-6.4,2.9-8.9c1.9-2,4.6-3.2,7.4-3.2h1
	c2.8,0,5.5,1.2,7.4,3.3c2.1,2.5,3.1,5.8,2.9,9c0.2,3.2-0.8,6.4-2.9,8.9C373.4,411.7,370.7,412.9,367.8,412.9z M367.4,391.9
	c-2,0-3.9,0.8-5.3,2.3c-1.3,1.9-1.9,4.3-1.8,6.6c-0.1,2.4,0.5,4.7,1.8,6.6c1.2,1.5,3,2.4,4.9,2.4h0.7c1.9,0,3.8-0.9,5.1-2.3
	c1.3-2,1.9-4.3,1.8-6.7c0.1-2.4-0.5-4.7-1.8-6.6C371.3,392.7,369.4,391.9,367.4,391.9z M389.6,400.5l2.8-3.5l7.6-8h4.2l-9.4,10.1
	l10.1,13.3h-4.3l-8.3-11l-2.7,2.3v8.8h-3.5v-33.3h3.5C389.6,379.2,389.6,400.5,389.6,400.5z M414.3,412.5h-3.5V389h3.5L414.3,412.5
	L414.3,412.5z M412.6,385.1h-0.1c-0.6,0-1.1-0.2-1.5-0.6c-0.4-0.5-0.7-1.1-0.6-1.7c-0.1-0.7,0.1-1.3,0.6-1.8
	c0.4-0.4,0.9-0.6,1.5-0.6h0.1c0.5,0,1,0.2,1.4,0.6c0.4,0.5,0.6,1.1,0.6,1.8c0.1,0.6-0.2,1.3-0.6,1.7
	C413.7,384.8,413.2,385.1,412.6,385.1z M439.6,412.4v-15.2c0.1-1.5-0.3-3-1.3-4.3c-1.1-1-2.6-1.5-4.1-1.4c-2-0.2-4,0.6-5.4,2
	c-1.3,2-1.9,4.3-1.7,6.6v12.2h-3.6V389h2.9l0.5,3.2c0.7-1.2,1.8-2.1,3.1-2.7c1.4-0.7,2.9-1,4.4-0.9c2.4-0.3,4.8,0.5,6.7,2
	c1.6,1.8,2.4,4.2,2.2,6.6v15.2L439.6,412.4z M459.9,423.1c-0.4,0-0.8,0-1.1,0c-0.2,0-0.5,0-0.7,0c-2.2,0-4.4-0.6-6.3-1.7
	c-1.6-1-2.6-2.9-2.5-4.8c-0.1-1.5,0.5-3.1,1.6-4.1c1-1.1,2.4-1.8,3.9-2.1c-0.6-0.3-1.1-0.7-1.5-1.3c-0.4-0.6-0.6-1.2-0.6-1.9
	c0-0.8,0.2-1.6,0.7-2.3c0.6-0.8,1.3-1.4,2.2-1.9c-1.2-0.5-2.3-1.4-3-2.5c-0.8-1.2-1.2-2.7-1.1-4.1c-0.1-2.2,0.7-4.4,2.3-5.9
	c1.7-1.4,3.8-2.1,5.9-2.1c0.3,0,0.5,0,0.7,0h0.1c1.1,0,2.2,0.1,3.3,0.4l7.9,0.3v2.3l-4.3,0.5c1,1.4,1.6,3,1.5,4.7
	c0.1,2.1-0.7,4.1-2.3,5.5c-1.7,1.4-3.8,2.1-5.9,2.1c-0.2,0-0.5,0-0.8,0h-1.9c-1.5,0.8-2.3,1.8-2.3,3c0,0.6,0.3,1.1,0.8,1.4
	c0.7,0.3,1.5,0.5,2.3,0.5c0.2,0,0.3,0,0.5,0h4.1c0.2,0,0.4,0,0.6,0c1.9,0,3.7,0.6,5.2,1.6c1.4,1.1,2.2,2.9,2.1,4.7
	c0.1,2.4-1.1,4.7-3.1,5.9C465.4,422.4,462.7,423.1,459.9,423.1z M459.4,420.1c0.3,0,0.7,0,1,0c2,0,3.9-0.5,5.6-1.4
	c1.4-0.7,2.2-2.1,2.2-3.6c0.1-1-0.3-2.1-1.2-2.7c-1.2-0.5-2.5-0.8-3.7-0.8c-0.2,0-0.5,0-0.7,0H458c-1.2,0-2.4,0.4-3.4,1.1
	c-1.1,0.8-1.7,2.1-1.7,3.5c0.1,1.2,0.8,2.3,1.9,2.7c1.3,0.7,2.7,1,4.1,1C459,420.1,459.2,420.1,459.4,420.1L459.4,420.1z M460,401.4
	c0.2,0,0.5,0.1,0.7,0.1c2.5,0,4.5-2,4.5-4.5c0-0.2,0-0.4,0-0.6c0.3-2.6-1.5-5-4.1-5.3c-0.4-0.1-0.8-0.1-1.2,0h-0.4
	c-1.3,0-2.6,0.5-3.5,1.4c-1,1.1-1.5,2.6-1.3,4.1c-0.1,1.4,0.4,2.7,1.4,3.6c1,0.8,2.3,1.3,3.6,1.3L460,401.4z M491.5,412.5h-3.4
	l12.4-31.3h3.1l12,31.3h-3.8l-3.7-9.9h-12.8L491.5,412.5L491.5,412.5z M501.6,384.9c-0.4,1.5-0.8,3-1.3,4.5l-3.7,9.7h10.1l-3.7-9.7
	C502.5,388,502.1,386.4,501.6,384.9L501.6,384.9z M537,412.4v-15.2c0.1-1.5-0.4-3.1-1.3-4.3c-1.1-1-2.6-1.5-4.1-1.4
	c-2-0.2-4,0.6-5.4,2c-1.3,1.9-2,4.3-1.7,6.6v12.2H521v-33.3h3.5v10.1c0.1,1,0.1,2,0,3c0.7-1.1,1.8-2.1,3-2.7c1.4-0.7,2.9-1,4.4-1
	c2.4-0.2,4.8,0.5,6.7,2.1c1.6,1.8,2.4,4.2,2.1,6.6v15.1L537,412.4z M558.8,412.9c-2.8,0-5.6-1.1-7.6-3.1c-2.2-2.4-3.3-5.6-3.1-8.8
	c-0.2-3.2,0.8-6.4,2.8-9c1.7-2.1,4.4-3.3,7.1-3.3h0.7c2.5,0,4.8,1,6.4,2.9c2,2.1,3,4.8,3,7.6v2.3h-16.2c0,2.3,0.7,4.5,2.1,6.3
	c1.4,1.4,3.2,2.1,5.1,2.2h0.4c2.6,0,5.2-0.5,7.6-1.6v3.2c-1.2,0.5-2.4,0.9-3.6,1.1c-1.1,0.2-2.3,0.4-3.5,0.4h-0.5
	C559.3,412.9,559,412.9,558.8,412.9L558.8,412.9z M558.2,391.6c-1.6,0-3.2,0.7-4.3,1.9c-1.2,1.4-1.8,3.2-1.9,5.1h12.3
	c0.1-1.8-0.4-3.6-1.5-5.1c-1-1.1-2.4-1.8-4-1.8h-0.3L558.2,391.6z M581.5,412.8c-1.8,0-3.6-0.6-5.1-1.8c-1.3-1.3-2-3.2-1.9-5
	c0-4.8,3.8-7.3,11.3-7.5h4v-1.5c0.1-1.5-0.3-2.9-1.2-4.1c-0.9-0.9-2.1-1.4-3.4-1.3h-0.4c-2.3,0.1-4.6,0.7-6.7,1.8l-1.1-2.7
	c1.2-0.6,2.5-1.1,3.8-1.5c1.4-0.3,2.7-0.5,4.1-0.5c0.2,0,0.4,0,0.7,0c2,0,4,0.7,5.6,1.9c1.5,1.6,2.2,3.8,2,6v15.8h-2.7l-0.7-3.3
	c-0.9,1.3-2.1,2.3-3.5,3c-1.3,0.5-2.6,0.7-3.9,0.7H581.5L581.5,412.8z M582.4,409.9h0.4c1.8,0,3.5-0.6,4.8-1.8
	c1.3-1.3,2-3.2,1.9-5.1v-2.1h-3.9c-2,0-4,0.5-5.8,1.3c-1.2,0.8-2,2.1-1.9,3.6c-0.1,1.1,0.3,2.2,1.1,2.9c0.9,0.7,2,1.1,3.2,1.1
	L582.4,409.9z M611.2,412.9h-1.1c-2.6,0-5-1.1-6.6-3.1c-1.9-2.6-2.8-5.7-2.6-8.9c-0.2-3.2,0.7-6.4,2.6-9c1.6-2,4.1-3.2,6.7-3.2h0.9
	c2.7,0,5.2,1.3,6.8,3.5v-12.9h3.4v33.3h-2.9l-0.5-3.1C616.5,411.5,614,412.9,611.2,412.9L611.2,412.9z M610.7,391.3
	c-1.8,0-3.6,0.9-4.6,2.5c-1.2,2-1.7,4.3-1.6,6.7c-0.2,2.3,0.4,4.6,1.6,6.6c1,1.7,2.9,2.8,4.9,2.9c0.2,0,0.3,0,0.5,0
	c1.8,0,3.5-0.7,4.8-2c1.3-2,1.9-4.3,1.7-6.7v-0.7c0.2-2.5-0.4-5-1.7-7.1c-1.3-1.4-3-2.2-4.9-2.2h-0.4L610.7,391.3z M324.3,352.6
	l55.9-119.7c0.5-1.2,1.7-1.9,3-1.9c1.3-0.1,2.5,0.7,3,1.9l56,119.7h12.5L396.6,228c-3.4-7.4-12.1-10.6-19.5-7.2
	c-3.2,1.5-5.7,4-7.2,7.2l-58.2,124.6H324.3z M200.2,341.3c-1.9,0-3.4-1.5-3.4-3.4c0,0,0,0,0-0.1V219.6h-11.3v118.2
	c0,8.1,6.5,14.7,14.7,14.8c0,0,0.1,0,0.1,0h89.9v-11.3L200.2,341.3z M141.4,352.6h14.7l-56.5-72.1l47.7-60.9H133L38.3,340.4
	c-0.8,1.1-2.2,1.5-3.5,1c-1.3-0.4-2.1-1.6-2.1-2.9V219.6H21.4v118.9c-0.1,6.2,3.9,11.7,9.7,13.6c1.5,0.5,3.2,0.8,4.8,0.8
	c4.4,0,8.6-2,11.3-5.5l45.2-57.7L141.4,352.6z"/>
<path class="st1" d="M488.1,219.6h133.3v133H488.1V219.6z"/>
<path class="st2" d="M611.4,279.8H561v-50.3h-12.5v50.3h-50.4v12.5h50.4v50.3H561v-50.3h50.4C611.4,292.3,611.4,279.8,611.4,279.8z"
	/>
</svg>
